<mxfile host="app.diagrams.net" modified="2020-07-30T13:14:22.547Z" agent="5.0 (Macintosh; Intel Mac OS X 10_15_5) AppleWebKit/537.36 (KHTML, like Gecko) Chrome/84.0.4147.105 Safari/537.36" etag="imAL90UayQD-VP62fVlr" version="13.5.6" type="github">
  <diagram id="sDQF3REivoKdGZhRzImm" name="Page-1">
    <mxGraphModel dx="1186" dy="741" grid="1" gridSize="10" guides="1" tooltips="1" connect="1" arrows="1" fold="1" page="1" pageScale="1" pageWidth="1169" pageHeight="827" math="0" shadow="0">
      <root>
        <mxCell id="0" />
        <mxCell id="1" parent="0" />
        <mxCell id="RmXMdpfBuPySY-zcTID--1" value="" style="rounded=0;whiteSpace=wrap;html=1;fillColor=#eeeeee;strokeColor=#36393d;" vertex="1" parent="1">
          <mxGeometry x="230" y="100" width="690" height="180" as="geometry" />
        </mxCell>
        <mxCell id="RmXMdpfBuPySY-zcTID--2" value="&lt;b&gt;迭代：&lt;/b&gt;招商团长管理&lt;br&gt;(运营后台)" style="rounded=1;whiteSpace=wrap;html=1;fillColor=#1ba1e2;strokeColor=#006EAF;fontColor=#ffffff;" vertex="1" parent="1">
          <mxGeometry x="250" y="160" width="120" height="60" as="geometry" />
        </mxCell>
        <mxCell id="RmXMdpfBuPySY-zcTID--3" value="&lt;b&gt;新建：&lt;/b&gt;招商团长后台&lt;br&gt;(团长端PC后台)" style="rounded=1;whiteSpace=wrap;html=1;fillColor=#a20025;strokeColor=#6F0000;fontColor=#ffffff;" vertex="1" parent="1">
          <mxGeometry x="430" y="160" width="120" height="60" as="geometry" />
        </mxCell>
        <mxCell id="RmXMdpfBuPySY-zcTID--4" value="&lt;b&gt;迭代：&lt;/b&gt;分销商家后台&lt;br&gt;(分销商家端PC后台)" style="rounded=1;whiteSpace=wrap;html=1;fillColor=#1ba1e2;strokeColor=#006EAF;fontColor=#ffffff;" vertex="1" parent="1">
          <mxGeometry x="610" y="160" width="120" height="60" as="geometry" />
        </mxCell>
        <mxCell id="RmXMdpfBuPySY-zcTID--5" value="&lt;b&gt;迭代：&lt;/b&gt;推广选货中心&lt;br&gt;(商家端H5)" style="rounded=1;whiteSpace=wrap;html=1;fillColor=#1ba1e2;strokeColor=#006EAF;fontColor=#ffffff;" vertex="1" parent="1">
          <mxGeometry x="790" y="160" width="120" height="60" as="geometry" />
        </mxCell>
      </root>
    </mxGraphModel>
  </diagram>
</mxfile>
